<svg width="20" height="20" fill="none" xmlns="http://www.w3.org/2000/svg"><g clip-path="url(#clip0_25_42)"><path d="M17.015 2.48A2.507 2.507 0 0014.667.832H5.333A2.507 2.507 0 002.985 2.48L1.198 7.391A19.82 19.82 0 000 14.193v1.64h1.667v3.334h5v-3.334h6.666v3.334h5v-3.334H20v-1.64a19.818 19.818 0 00-1.198-6.802l-1.787-4.912zM4.55 3.048a.833.833 0 01.782-.549h9.334a.833.833 0 01.782.549l1.787 4.916c.144.398.264.802.38 1.206H2.384a18.7 18.7 0 01.38-1.206l1.787-4.917zM5 17.5H3.333v-1.666H5V17.5zm11.666 0H15v-1.666h1.666V17.5zm-15-3.333a18.25 18.25 0 01.319-3.333h1.348v.833a.833.833 0 001.667 0v-.833h10v.833a.833.833 0 001.666 0v-.833h1.349a18.25 18.25 0 01.318 3.333H1.667z" fill="#C13314"/></g><defs><clipPath id="clip0_25_42"><path fill="#fff" d="M0 0h20v20H0z"/></clipPath></defs></svg>