<svg width="100" height="100" fill="none" xmlns="http://www.w3.org/2000/svg"><g clip-path="url(#clip0_41_57)" fill="#C13314"><path d="M100 72.654c-.905 1.866-2.405 2.45-4.437 2.377-3.412-.122-6.832-.052-10.25-.023-1.071.01-1.96-.298-2.74-1.033-.191-.18-.57-.287-.828-.24-1.594.292-3.219.514-4.753 1.01-1.1.354-2.076 1.1-3.164 1.706.485 1.52.43 3.018-.23 4.456-.667 1.45-1.802 2.437-3.305 3.045.778 3.444-.323 5.974-3.466 7.503 0 1.094.174 2.213-.032 3.259-.717 3.624-4.481 5.586-7.883 4.128-1.967-.843-3.866-1.837-5.877-2.805-1.038 2.298-2.69 3.81-5.298 3.95-2.619.141-4.44-1.15-5.572-3.136-1.508 0-2.874.172-4.176-.047-1.492-.25-2.59-1.276-3.415-2.565-.14-.219-.516-.509-.686-.454-3.302 1.02-5.694-.172-7.288-2.734-1.414 0-2.703.211-3.892-.04-3.485-.732-5.345-4.202-4.182-7.578.58-1.68 1.226-3.338 1.886-5.117-.892-.355-1.716-.715-2.57-.991-.197-.066-.487.172-.737.26-.718.251-1.435.697-2.16.71-3.872.07-7.745.047-11.616.026C1.396 78.311.013 76.912.01 74.99c-.007-8.331-.007-16.662 0-24.993 0-1.88 1.37-3.3 3.232-3.313 3.937-.026 7.876-.063 11.812.036.793.021 1.565.634 2.356.953.328.13.701.339 1.014.284 6.618-1.143 13.231-2.317 20.014-3.514-.256-.29-.439-.522-.645-.733-6.138-6.27-9.936-13.716-10.812-22.467-.405-4.031-.303-8.117-.332-12.18-.013-1.734.955-2.885 2.617-3.339 1.758-.477 2.906-1.508 3.373-3.28C32.965 1.206 33.925.567 34.963 0H65.04c1.335.629 2.139 1.646 2.559 3.084.404 1.377 1.515 2.145 2.854 2.565 2.157.678 2.924 1.709 2.929 3.991.005 2.375.029 4.749-.005 7.123-.11 8.19-2.473 15.652-7.252 22.329-.485.678-.991 1.34-1.544 2.087C70.416 42.35 76.137 43.5 81.86 44.63c.198.039.503-.081.65-.233.808-.83 1.789-1.088 2.918-1.077 3.384.029 6.77.091 10.148-.021 2.027-.068 3.54.506 4.419 2.4v26.952l.005.002zM30.048 9.04c0 2.437-.104 4.785.026 7.118.152 2.716.225 5.487.83 8.12 2.465 10.736 8.71 18.625 18.48 23.713.286.149.782.177 1.06.034 10.62-5.48 17.15-14.076 19.02-25.884.65-4.107.362-8.365.46-12.555.004-.253-.353-.663-.624-.754-2.447-.82-4.127-2.416-4.99-4.838-.175-.487-.384-.657-.89-.654-8.95.007-17.903-.006-26.853.013-.245 0-.642.211-.717.417-1.01 2.74-2.927 4.472-5.802 5.273V9.04zm1.182 66.816c1.539-1.06 3.208-1.446 5.008-.979 1.8.467 3.042 1.652 3.898 3.254 2.053-.83 3.96-.673 5.73.52 1.78 1.194 2.487 2.997 2.58 5.058 1.696-.123 3.141.237 4.394 1.25 2.066 1.672 2.723 4.172 1.68 6.846-.335.853-.115 1.18.638 1.518 1.6.72 3.154 1.537 4.74 2.283 1.422.668 2.784.246 3.417-1.022.65-1.3.139-2.696-1.29-3.408-1.336-.668-2.693-1.291-4.034-1.949-1.16-.569-1.562-1.492-1.085-2.429.462-.903 1.417-1.15 2.528-.629 1.323.624 2.627 1.281 3.952 1.897 1.476.684 2.976.212 3.574-1.093.595-1.305.047-2.643-1.425-3.37-1.367-.68-2.754-1.316-4.126-1.981-1.174-.569-1.605-1.461-1.18-2.403.439-.973 1.435-1.206 2.68-.616 1.377.655 2.741 1.341 4.126 1.975 1.456.665 2.886.193 3.48-1.103.605-1.32.068-2.664-1.382-3.384-1.338-.663-2.695-1.287-4.038-1.941-1.159-.567-1.579-1.493-1.122-2.43.449-.92 1.43-1.155 2.598-.605 1.411.663 2.807 1.357 4.223 2.001.973.441 1.91.321 2.721-.394.79-.696 1.085-1.656.65-2.56-.324-.67-.97-1.32-1.636-1.666-5.783-3.027-11.6-5.986-17.41-8.96-1.513-.775-1.792-.736-3.01.412-3.104 2.922-6.17 5.886-9.315 8.762-2.74 2.504-6.71 2.403-9.245-.13-2.523-2.521-2.598-6.503-.162-9.26 1.229-1.391 2.473-2.763 3.707-4.149 2.03-2.278 4.056-4.555 6.128-6.883-.692-.433-1.086-1.08-2.074-.897-5.71 1.057-11.439 2.022-17.16 3.024-1.87.329-3.738.676-5.631 1.02v19.419c0 .973-.316 2.192.148 2.852.49.7 1.753.837 2.65 1.278.59.29.968.144 1.454-.274 1.377-1.181 2.981-1.635 4.807-1.304 1.591.29 2.789 1.163 3.817 2.447l-.003.003zm50.385-27.763c-.308-.086-.556-.172-.809-.222-6.013-1.195-12.028-2.369-18.033-3.603-.702-.144-1.13-.018-1.63.454-2.372 2.246-5.069 4.036-7.858 5.732-2.248 1.37-4.324 1.605-6.492.008-.43-.316-.744-.306-1.143.148-3.206 3.635-6.45 7.235-9.667 10.862-1.372 1.547-1.367 3.413-.04 4.72 1.362 1.34 3.243 1.28 4.785-.17 3.083-2.896 6.164-5.795 9.242-8.693 1.983-1.868 3.999-2.176 6.41-.945 5.691 2.912 11.354 5.886 17.083 8.722 2.538 1.258 4.213 2.985 4.299 5.978 1.322-.277 2.58-.54 3.853-.809V48.09v.003zm3.438 23.492h11.556V46.736H85.053v24.849zM14.95 50.078H3.39v24.86h11.56v-24.86zm19.872 28.014c-1.135-.024-1.962.5-2.366 1.531a296.338 296.338 0 00-2.95 7.817c-.475 1.32.156 2.661 1.361 3.147 1.276.51 2.687-.034 3.222-1.373a198.403 198.403 0 002.958-7.814c.595-1.685-.532-3.27-2.225-3.31v.002zm7.77 2.932c-1.134-.013-1.942.525-2.347 1.558-1.012 2.593-2 5.197-2.942 7.817-.472 1.31.172 2.648 1.385 3.125 1.286.507 2.663-.041 3.203-1.398 1.03-2.586 2.035-5.184 2.958-7.81.59-1.672-.56-3.255-2.256-3.292zM28.844 79.28c.021-1.213-.819-2.283-1.894-2.515-1.226-.264-2.394.29-2.864 1.466a191.008 191.008 0 00-2.34 6.173c-.514 1.427.115 2.815 1.406 3.28 1.333.477 2.648-.136 3.214-1.566.785-1.985 1.529-3.99 2.275-5.988.112-.3.154-.628.206-.85h-.003zm20.292 7.788c-1.098.005-1.86.553-2.256 1.537a101.75 101.75 0 00-1.774 4.72c-.456 1.314.16 2.645 1.372 3.125 1.289.509 2.643-.031 3.206-1.38a72.322 72.322 0 001.792-4.712c.58-1.72-.581-3.298-2.337-3.287l-.003-.003z"/><path d="M46.67 30.902c.287-.272.548-.507.796-.752 4.805-4.803 9.607-9.611 14.417-14.41 1.153-1.148 2.781-.874 3.016.57.091.55-.245 1.348-.655 1.776-2.475 2.58-5.032 5.082-7.56 7.613-2.827 2.828-5.652 5.66-8.485 8.482-1.14 1.135-1.933 1.13-3.07-.002-2.048-2.043-4.101-4.084-6.136-6.142-1.017-1.03-.835-2.348.365-2.88.801-.355 1.446-.073 2.02.5a1953.74 1953.74 0 004.554 4.55c.224.225.464.439.736.695h.002z"/></g><defs><clipPath id="clip0_41_57"><path fill="#fff" d="M0 0h100v100H0z"/></clipPath></defs></svg>