<svg width="30" height="30" fill="none" xmlns="http://www.w3.org/2000/svg"><g clip-path="url(#clip0_25_351)"><path d="M30 3.222v23.547c-.017.022-.045.044-.048.069-.221 1.67-1.784 3.196-3.842 3.161-2.333-.038-4.666-.009-7-.009h-.339V18.742h3.607l.96-3.76H18.75c0-1.51-.006-2.993.002-4.476.006-1.238.918-2.193 2.154-2.244.672-.028 1.347-.01 2.02-.015.103 0 .205-.01.297-.015V4.523c-.903 0-1.783-.034-2.659.013a5.443 5.443 0 00-1.481.3C16.56 5.72 15.01 7.931 15 10.618c-.005 1.347 0 2.694 0 4.041v.343h-3.727v3.753h3.707V29.99h-.22c-3.701 0-7.401.006-11.102-.004-1.98-.004-3.652-1.682-3.654-3.668-.006-7.546-.004-15.09 0-22.635 0-1.634 1.152-3.12 2.722-3.55L3.223 0h23.554c.042.019.082.048.126.057 1.513.308 2.486 1.213 2.962 2.669.053.162.09.33.135.496zm-9.722 25.255h.306c1.836 0 3.672.002 5.507 0 1.469-.002 2.394-.926 2.394-2.394.002-7.389.002-14.78 0-22.169 0-1.47-.923-2.398-2.388-2.398-7.401-.002-14.803-.003-22.205 0-1.447 0-2.375.931-2.375 2.382-.002 7.399-.002 14.798.001 22.198 0 .204.006.413.051.61.248 1.101 1.112 1.769 2.296 1.77 3.115.004 6.23.001 9.344 0 .085 0 .17-.01.26-.017v-8.213H9.758v-6.772h3.73c0-.947-.002-1.855 0-2.763.004-1.296.241-2.542.871-3.686 1.273-2.311 3.216-3.706 5.849-3.96 1.48-.142 2.983-.053 4.476-.067.017 0 .033.017.064.034.004.048.016.104.016.161.001 2.109-.002 4.217.006 6.326 0 .232-.11.244-.288.243a415.66 415.66 0 00-3.369 0c-.565.002-.844.284-.846.843-.002.83 0 1.66 0 2.49v.396h5.018l-1.732 6.776H20.28v8.21z" fill="#C13314"/></g><defs><clipPath id="clip0_25_351"><path fill="#fff" d="M0 0h30v30H0z"/></clipPath></defs></svg>