<svg width="40" height="40" fill="none" xmlns="http://www.w3.org/2000/svg"><g clip-path="url(#clip0_7_132)" fill="#C13314"><path d="M19.93 40.013l-1.162-.996c-1.602-1.34-15.587-13.419-15.587-22.254C3.181 7.514 10.68.015 19.93.015s16.748 7.499 16.748 16.748c0 8.835-13.985 20.913-15.58 22.26l-1.168.99zm0-36.376c-7.246.008-13.119 5.88-13.127 13.126 0 5.55 8.604 14.417 13.127 18.475 4.523-4.06 13.127-12.931 13.127-18.475-.009-7.246-5.88-13.118-13.127-13.126z"/><path d="M19.93 23.402a6.639 6.639 0 110-13.278 6.639 6.639 0 010 13.278zm0-9.959a3.32 3.32 0 100 6.64 3.32 3.32 0 000-6.64z"/></g><defs><clipPath id="clip0_7_132"><path fill="#fff" d="M0 0h40v40H0z"/></clipPath></defs></svg>