<svg width="40" height="40" fill="none" xmlns="http://www.w3.org/2000/svg"><g clip-path="url(#clip0_7_112)"><path d="M23.667 27.102a20.222 20.222 0 01-10.755-10.78l5.667-5.677L8.145.203 2.86 5.487A9.833 9.833 0 000 12.5C0 24.58 15.42 40 27.5 40a9.814 9.814 0 007.012-2.86l5.285-5.285-10.442-10.442-5.688 5.689zm8.487 7.681a6.499 6.499 0 01-4.654 1.884c-10.388 0-24.166-13.779-24.166-24.167a6.512 6.512 0 011.883-4.655l2.928-2.928 5.729 5.728-4.892 4.892.408 1.023a23.953 23.953 0 0014.08 14.06l1.01.385 4.876-4.878 5.729 5.728-2.93 2.928zm-8.82-31.45V0A16.685 16.685 0 0140 16.667h-3.333A13.349 13.349 0 0023.334 3.333zm0 6.667V6.667a10.01 10.01 0 0110 10H30A6.667 6.667 0 0023.334 10z" fill="#C13314"/></g><defs><clipPath id="clip0_7_112"><path fill="#fff" d="M0 0h40v40H0z"/></clipPath></defs></svg>