<svg width="100" height="100" fill="none" xmlns="http://www.w3.org/2000/svg"><path d="M40.46 99.129c-1.655-.549-2.855-1.707-4.054-2.912-9.888-9.915-19.797-19.81-29.7-29.713-2.853-2.852-2.84-5.794.033-8.667 14.853-14.851 29.716-29.695 44.545-44.572 1.474-1.476 3.117-2.14 5.193-2.214 6.003-.215 12.003-.566 18.003-.859 2.042-.1 4.088-.159 6.13-.271 1.746-.098 3.184.515 4.378 1.76l1.494 1.569c2.735-3.757 4.383-7.755 4.596-12.38l4.129.267c-.256 1.574-.433 3.109-.761 4.61-.772 3.511-2.4 6.646-4.47 9.557-.405.566-.482.925.095 1.42.748.643 1.42 1.381 2.112 2.091 1.304 1.333 1.82 2.914 1.704 4.793-.272 4.4-.451 8.808-.666 13.213-.195 3.957-.31 7.922-.633 11.868-.082 1.005-.774 1.974-1.267 2.92-.197.379-.605.65-.92.968-14.58 14.582-29.167 29.16-43.738 43.752-1.153 1.156-2.304 2.273-3.898 2.799H40.46zm43.613-82.853c-.466-.405-.992-.745-1.366-1.207-.764-.938-1.681-1.17-2.868-1.107-7.784.42-15.573.782-23.36 1.138-.876.041-1.563.292-2.204.935C39.371 30.966 24.45 45.88 9.533 60.797c-1.102 1.102-1.113 1.732-.031 2.814 10.247 10.228 20.497 20.456 30.746 30.682 1.069 1.068 1.581 1.07 2.637.012C57.871 79.321 72.862 64.341 87.82 49.328c.439-.44.728-1.201.772-1.834.236-3.473.377-6.953.543-10.434.22-4.659.441-9.318.636-13.98.015-.392-.031-.902-.264-1.163-.82-.92-1.733-1.758-2.607-2.622-1.217 1.156-1.197 1.148-.646 2.568 1.095 2.817.756 5.49-1.089 7.86-1.884 2.42-4.414 3.527-7.5 3.04-3.27-.515-5.466-2.43-6.458-5.544-.987-3.103-.203-5.91 2.163-8.131 2.391-2.248 5.241-2.863 8.322-1.638.897.356 1.405.264 1.884-.49.118-.184.256-.353.497-.684zm-4.198 4.852c-2.268-.36-3.973.56-4.68 2.337-.684 1.714-.072 3.683 1.476 4.744a3.914 3.914 0 004.865-.344c1.16-1.056 1.63-2.68.89-4.016l-1.662 2.184-3.098-3.006c.663-.572 1.36-1.169 2.212-1.9h-.003z" fill="#C13314"/><path d="M39.076 45.056c-.627-.595-1.413-1.303-2.154-2.054-.972-.99-1-2.09-.126-2.957.867-.858 1.978-.81 2.99.125.022.023.046.044.069.067.706.697 1.307 1.74 2.148 1.988.73.217 1.715-.521 2.613-.739 2.81-.682 5.348-.104 7.543 1.781.59.506.895 1.173.67 1.97-.224.8-.755 1.454-1.572 1.482-.637.023-1.372-.25-1.917-.61-1.503-.994-3.061-1.265-4.614-.332-1.764 1.06-3.159 2.501-3.084 4.73.062 1.844 1.372 2.838 3.157 2.327 1.993-.572 3.928-1.357 5.867-2.095 2.066-.787 4.088-1.687 6.378-1.633 1.426.033 2.625.534 3.636 1.505 2.798 2.683 3.335 6.636 1.357 9.966-.178.298-.37.59-.66 1.052.706.644 1.46 1.288 2.168 1.98 1.15 1.125 1.243 2.262.305 3.164-.86.825-2.128.713-3.152-.307-.748-.743-1.467-1.515-2.207-2.282-1.953 1.127-3.926 1.838-6.113 1.743-1.555-.069-2.965-.55-4.095-1.653-.782-.764-.849-1.878-.204-2.68.707-.882 1.831-1.11 2.731-.4.988.783 2.02.86 3.17.57 1.957-.49 3.528-1.527 4.57-3.247.866-1.434.856-2.903-.1-4.316-.702-1.04-1.337-1.367-2.544-.96-2.393.807-4.716 1.819-7.115 2.61-1.506.497-3.082.956-4.652 1.064-4.625.317-7.307-4.02-6.53-7.906.255-1.28.905-2.481 1.464-3.958l.003.005z" fill="#C13314"/></svg>