<svg width="100" height="100" fill="none" xmlns="http://www.w3.org/2000/svg"><g clip-path="url(#clip0_41_80)" fill="#C13314"><path d="M50.645 0c3.42 2.258 6.833 4.525 10.275 6.752.373.242.904.366 1.354.344 3.78-.174 7.558-.388 11.335-.599 1.187-.065 1.97.46 2.495 1.508 1.615 3.231 3.273 6.438 4.876 9.673.336.676.77 1.132 1.454 1.47 3.24 1.6 6.449 3.269 9.692 4.866 1.192.589 1.612 1.47 1.525 2.76-.252 3.737-.46 7.474-.64 11.215-.019.409.18.883.413 1.24a735.51 735.51 0 006.008 9.146c.764 1.141.761 2.196-.004 3.334a516.005 516.005 0 00-5.967 9.056A3.111 3.111 0 0093 62.467c.152 3.61.341 7.22.593 10.827.096 1.399-.429 2.258-1.674 2.869a435.05 435.05 0 00-9.677 4.897 2.978 2.978 0 00-1.186 1.182c-1.671 3.2-3.283 6.432-4.917 9.654-.752 1.48-1.305 1.768-2.954 1.669a893.246 893.246 0 00-11.136-.624c-.407-.018-.88.193-1.237.425-3.06 1.988-6.119 3.982-9.135 6.032-1.156.785-2.156.8-3.318.013a458.93 458.93 0 00-9.222-6.082c-.398-.257-.963-.388-1.442-.366-3.746.177-7.489.403-11.235.62-1.18.069-1.97-.446-2.497-1.498-1.6-3.2-3.253-6.376-4.834-9.586-.382-.778-.904-1.268-1.674-1.647-3.1-1.52-6.15-3.138-9.26-4.636-1.366-.658-1.9-1.591-1.792-3.095.258-3.573.438-7.152.587-10.731.022-.565-.174-1.222-.478-1.703A381.833 381.833 0 00.609 51.71c-.81-1.191-.798-2.215.012-3.4a406.443 406.443 0 005.983-9.043 2.75 2.75 0 00.42-1.523c-.16-3.579-.336-7.158-.6-10.727-.115-1.538.407-2.506 1.814-3.185 3.255-1.57 6.47-3.226 9.682-4.885.398-.205.786-.59.99-.986 1.69-3.266 3.362-6.54 4.983-9.84.615-1.247 1.51-1.747 2.895-1.65 3.71.254 7.424.452 11.136.629.413.019.895-.152 1.25-.381 2.574-1.66 5.121-3.36 7.68-5.043C47.716 1.113 48.595.56 49.47 0h1.175zm15.907 89.009v.006c1.789.102 3.581.18 5.37.32.647.05.982-.14 1.277-.739 1.476-3.008 3.026-5.98 4.51-8.984.441-.893 1.066-1.501 1.96-1.939 2.983-1.463 5.927-3.002 8.912-4.453.671-.326.852-.704.802-1.42-.227-3.412-.441-6.824-.55-10.241-.025-.754.23-1.622.634-2.264 1.82-2.894 3.727-5.732 5.64-8.563.349-.515.34-.862-.002-1.37-1.895-2.808-3.734-5.651-5.626-8.458-.516-.766-.742-1.554-.683-2.475.21-3.412.372-6.826.593-10.238.044-.648-.13-.973-.733-1.268-3.07-1.504-6.132-3.027-9.148-4.637a4.285 4.285 0 01-1.665-1.662c-1.6-2.98-3.116-6.007-4.6-9.047-.33-.67-.706-.862-1.423-.815-3.417.226-6.834.443-10.257.552-.755.024-1.625-.236-2.268-.64-2.895-1.82-5.737-3.724-8.579-5.631-.51-.341-.857-.354-1.376-.003-2.808 1.895-5.622 3.783-8.496 5.576-.696.434-1.634.713-2.447.691-3.39-.099-6.775-.322-10.158-.548-.714-.047-1.093.136-1.423.806-1.484 3.04-2.997 6.066-4.59 9.05a4.293 4.293 0 01-1.666 1.665c-2.988 1.594-6.023 3.098-9.06 4.593-.606.298-.858.617-.811 1.321.223 3.282.363 6.57.587 9.847.077 1.126-.159 2.078-.805 3.024-1.876 2.742-3.665 5.539-5.523 8.293-.345.512-.348.865 0 1.38 1.786 2.642 3.486 5.35 5.312 7.964.839 1.2 1.103 2.413.988 3.846-.246 3.114-.348 6.243-.562 9.36-.05.71.21 1.026.813 1.318 3.041 1.492 6.082 2.987 9.07 4.571a4.275 4.275 0 011.672 1.66c1.612 3.011 3.137 6.069 4.64 9.136.296.605.631.77 1.271.729 3.417-.217 6.837-.444 10.257-.549.786-.025 1.69.236 2.358.654 2.898 1.815 5.74 3.722 8.58 5.632.521.351.872.33 1.378-.009 2.84-1.907 5.682-3.811 8.58-5.632.643-.403 1.506-.63 2.274-.642 1.658-.025 3.32.143 4.982.233h-.01z"/><path d="M18.815 50.04c.018-17.15 14.04-31.134 31.214-31.128 17.194.003 31.194 13.984 31.184 31.14-.01 17.167-14.028 31.154-31.196 31.132-17.193-.022-31.224-14.024-31.202-31.144zm58.248-.021c-.037-14.865-12.207-26.985-27.058-26.951-14.898.034-27.025 12.173-26.988 27.006.038 14.884 12.177 26.979 27.043 26.948 14.898-.034 27.04-12.176 27.003-27.003z"/><path d="M46.212 54.882l1.407-1.334c4.383-4.134 8.757-8.278 13.17-12.38a3.873 3.873 0 011.759-.91c.835-.18 1.513.29 1.929 1.033.4.72.354 1.446-.121 2.116-.224.316-.504.595-.786.862-5.141 4.847-10.285 9.695-15.432 14.536-1.625 1.526-2.572 1.495-4.138-.109-2.525-2.586-5.05-5.173-7.567-7.765-.292-.301-.58-.624-.795-.984-.475-.79-.32-1.767.336-2.419.652-.651 1.643-.819 2.426-.34.382.232.705.57 1.037.877 2.33 2.134 4.66 4.274 6.986 6.41l-.208.407h-.003z"/></g><defs><clipPath id="clip0_41_80"><path fill="#fff" d="M0 0h100v100H0z"/></clipPath></defs></svg>