<svg width="30" height="30" fill="none" xmlns="http://www.w3.org/2000/svg"><g clip-path="url(#clip0_25_354)" fill="#C13314"><path d="M30 21.153v1.524c-.02.074-.049.147-.058.222-.367 3.21-2.746 5.976-5.87 6.808-.457.122-.927.197-1.39.294h-1.523c-.046-.016-.09-.043-.136-.047-1.254-.128-2.401-.552-3.467-1.219a.654.654 0 00-.412-.065 13.681 13.681 0 01-5.17-.171c-3.05-.695-5.593-2.245-7.582-4.653C1.854 20.773.84 17.23 1.31 13.27c.051-.43.008-.785-.22-1.179C-.013 10.177-.282 8.123.3 5.997 1.752.69 7.74-1.636 12.442 1.252c.112.07.278.106.408.085a13.35 13.35 0 014.194-.028c3.035.464 5.66 1.776 7.797 3.982 3.098 3.2 4.396 7.035 3.868 11.468-.05.426 0 .771.22 1.152.299.518.53 1.085.718 1.654.169.513.24 1.059.354 1.59L30 21.152zM3.47 15.072c.112.786.18 1.634.36 2.458 1.308 6.003 7.347 9.95 13.346 8.73.537-.109.97-.006 1.42.313 1.564 1.108 3.287 1.37 5.11.785 2.564-.822 4.184-3.353 3.91-6.033a5.614 5.614 0 00-1.111-2.847c-.253-.338-.356-.692-.268-1.122.26-1.278.326-2.566.15-3.867-.319-2.34-1.244-4.41-2.845-6.132-2.915-3.134-6.504-4.366-10.738-3.607-.493.088-.902.016-1.316-.28-1.696-1.212-3.541-1.455-5.485-.711-2.39.915-3.867 3.382-3.597 5.902a5.691 5.691 0 001.122 2.874c.254.339.333.695.26 1.124-.13.777-.209 1.562-.317 2.412z"/><path d="M15.168 23.106c-1.963-.063-3.603-.565-4.863-1.956a4.616 4.616 0 01-.725-1.121c-.258-.547.015-1.19.555-1.465.535-.273 1.234-.12 1.512.41.548 1.046 1.47 1.496 2.554 1.692a4.472 4.472 0 002.948-.447c.51-.27.937-.634 1.168-1.184.239-.569.122-1.072-.343-1.477-.594-.517-1.317-.787-2.046-1.032-1.188-.4-2.392-.755-3.569-1.185-.838-.306-1.593-.782-2.2-1.454-1.208-1.337-1.254-3.206-.111-4.722.862-1.143 2.033-1.801 3.414-2.086 1.902-.393 3.701-.125 5.341.96.67.443 1.2 1.024 1.564 1.745.324.639.132 1.326-.453 1.643-.6.326-1.273.1-1.63-.548-.453-.82-1.198-1.225-2.065-1.452-1.159-.302-2.28-.194-3.345.359-.513.266-.938.633-1.168 1.182-.24.57-.121 1.075.343 1.477.642.555 1.428.824 2.212 1.088 1.133.381 2.281.717 3.403 1.128a5.486 5.486 0 012.18 1.433c1.227 1.337 1.282 3.208.13 4.743-.9 1.199-2.138 1.847-3.584 2.124-.447.085-.906.109-1.222.145z"/></g><defs><clipPath id="clip0_25_354"><path fill="#fff" d="M0 0h30v30H0z"/></clipPath></defs></svg>