<svg width="108" height="100" fill="none" xmlns="http://www.w3.org/2000/svg"><g clip-path="url(#clip0_41_79)" filter="url(#filter0_d_41_79)" fill="#C13314"><path d="M104 56.372c-.324 1.85-.564 3.721-.99 5.548-1.701 7.272-5.339 13.43-10.808 18.51-.82.76-1.7.836-2.33.212-.68-.674-.594-1.55.287-2.38 5.54-5.206 9.098-11.508 10.334-19.023 1.761-10.727-1.032-20.207-8.28-28.276-5.618-6.255-12.736-9.861-21.087-10.734-9.637-1.006-18.205 1.714-25.605 8.012-.248.211-.486.436-.745.632-.732.56-1.552.52-2.109-.086-.593-.648-.603-1.552.178-2.15 2.138-1.644 4.264-3.32 6.533-4.77 2.584-1.654 5.456-2.738 8.424-3.52.622-.164.834-.412.815-1.055a100.303 100.303 0 01-.005-4.693c.031-1.662 1.082-2.783 2.741-2.798 4.105-.04 8.213-.04 12.318.002 1.635.018 2.712 1.184 2.738 2.82.024 1.5.05 3-.013 4.497-.029.736.17 1.05.912 1.277 13.274 4.08 21.813 12.82 25.566 26.185.47 1.68.624 3.447.933 5.174.044.251.128.497.193.745v5.871zM73.35 17.248v-4.432H61.611v4.432h11.737z"/><path d="M67.426 81.107C52.134 80.979 39.709 68.476 39.92 53.43c.217-15.357 12.603-27.601 27.74-27.418 15.291.183 27.491 12.508 27.366 27.65-.126 15.255-12.514 27.57-27.601 27.445zm1.557-52.072c0 1.283.005 2.45 0 3.622-.005 1.207-.546 1.865-1.505 1.855-.935-.01-1.442-.622-1.456-1.798-.013-1.2-.002-2.396-.002-3.674-5.678.402-10.533 2.425-14.85 6.182.977.939 1.926 1.743 2.733 2.674.335.384.58 1.074.492 1.552-.225 1.178-1.594 1.463-2.538.564-.914-.87-1.76-1.808-2.699-2.777-3.768 4.332-5.767 9.2-6.18 14.836 1.406 0 2.707-.008 4.006.003.79.005 1.296.423 1.45 1.186.147.719-.136 1.312-.804 1.61-.338.149-.76.146-1.145.151-1.155.019-2.31.005-3.514.005.449 5.69 2.448 10.544 6.198 14.848.948-.988 1.797-1.934 2.715-2.81.93-.888 2.315-.574 2.518.604.084.481-.177 1.166-.517 1.547-.828.933-1.792 1.743-2.744 2.642 4.395 3.786 9.243 5.793 14.881 6.203 0-1.309-.013-2.542.006-3.773.015-1.105.527-1.685 1.447-1.698.965-.013 1.5.595 1.51 1.745.011 1.23 0 2.464 0 3.734 5.655-.434 10.528-2.425 14.8-6.17-.927-.911-1.773-1.721-2.597-2.555-.802-.812-.888-1.662-.266-2.315.664-.7 1.531-.64 2.375.214.841.85 1.651 1.73 2.527 2.65 3.752-4.377 5.8-9.203 6.17-14.865-1.292 0-2.491.039-3.688-.019-.457-.02-1.09-.133-1.306-.439-.293-.413-.484-1.15-.306-1.575.175-.419.844-.837 1.33-.881 1.307-.12 2.631-.042 3.985-.042-.413-5.69-2.433-10.533-6.17-14.834-.909.938-1.73 1.816-2.584 2.66-.802.795-1.662.847-2.31.188-.64-.65-.574-1.51.23-2.31.852-.846 1.743-1.654 2.681-2.537-4.356-3.765-9.2-5.798-14.868-6.2l-.005-.003z"/><path d="M30.93 53.453c.086-7.972 2.472-15.16 7.172-21.586.23-.313.46-.653.766-.88.622-.46 1.31-.442 1.879.083.643.594.63 1.307.17 2.033-1.098 1.73-2.329 3.39-3.264 5.203-9.807 19.028.8 42.542 21.552 47.724 9.005 2.25 17.557.959 25.574-3.752.14-.084.274-.175.418-.254.906-.504 1.777-.358 2.231.374.478.77.21 1.633-.726 2.216-3.478 2.174-7.217 3.775-11.23 4.578-12.697 2.532-23.913-.51-33.332-9.433-6.319-5.987-9.93-13.436-10.907-22.114-.157-1.39-.204-2.791-.303-4.189v-.003zm-16.206-1.06c2.994 0 5.989-.013 8.983.015.465.006 1.074.07 1.351.364.324.345.565 1.013.46 1.447-.104.437-.663.779-1.066 1.113-.12.102-.379.047-.572.047-6.088 0-12.174 0-18.263.006-.885 0-1.539-.317-1.737-1.223-.217-.993.488-1.748 1.664-1.761 2.117-.027 4.23-.008 6.347-.011h2.833v.003zm3.916-5.613c-2.375 0-4.75.005-7.125 0-1.126-.003-1.78-.557-1.785-1.482-.005-.922.633-1.481 1.777-1.484 4.75-.01 9.501-.01 14.252 0 1.212 0 1.863.565 1.834 1.523-.026.905-.695 1.44-1.827 1.445-2.375.006-4.75 0-7.125 0v-.002zm-.018 16.533h-6.54c-.324 0-.653.005-.975-.037-.851-.113-1.387-.706-1.377-1.487.01-.818.61-1.471 1.5-1.474 4.947-.02 9.893-.02 14.84 0 .893.003 1.507.651 1.523 1.458.018.894-.59 1.516-1.649 1.529-2.44.034-4.881.01-7.322.01zm3.322-28.09c1.951 0 3.903-.01 5.855.002 1.13.008 1.788.58 1.775 1.495-.014.901-.693 1.455-1.814 1.458-3.872.005-7.745.005-11.617 0-1.145 0-1.756-.538-1.746-1.497.01-.917.596-1.443 1.69-1.453 1.953-.016 3.905-.005 5.857-.005zm.102 33.673c1.92 0 3.84-.007 5.759.003 1.09.005 1.78.614 1.766 1.518-.016.88-.638 1.458-1.717 1.46-3.938.02-7.875.02-11.81-.002-1.082-.005-1.657-.582-1.647-1.507.01-.905.63-1.461 1.693-1.469 1.986-.013 3.97-.005 5.956-.005v.002zm47.183-19.605c.78-.818 1.544-1.649 2.343-2.446.8-.8 1.647-.852 2.305-.193.633.635.572 1.531-.204 2.323-1.683 1.72-3.352 3.454-5.106 5.103-.35.33-1.147.541-1.544.366-.447-.196-.943-.886-.954-1.37-.08-3.574-.054-7.154-.036-10.73.005-.952.674-1.6 1.502-1.571.831.028 1.438.69 1.443 1.646.015 2.242.005 4.481.005 6.723l.246.152v-.003z"/></g><defs><clipPath id="clip0_41_79"><path fill="#fff" transform="translate(4)" d="M0 0h100v100H0z"/></clipPath><filter id="filter0_d_41_79" x="0" y="0" width="108" height="108" filterUnits="userSpaceOnUse" color-interpolation-filters="sRGB"><feFlood flood-opacity="0" result="BackgroundImageFix"/><feColorMatrix in="SourceAlpha" values="0 0 0 0 0 0 0 0 0 0 0 0 0 0 0 0 0 0 127 0" result="hardAlpha"/><feOffset dy="4"/><feGaussianBlur stdDeviation="2"/><feComposite in2="hardAlpha" operator="out"/><feColorMatrix values="0 0 0 0 0 0 0 0 0 0 0 0 0 0 0 0 0 0 0.25 0"/><feBlend in2="BackgroundImageFix" result="effect1_dropShadow_41_79"/><feBlend in="SourceGraphic" in2="effect1_dropShadow_41_79" result="shape"/></filter></defs></svg>