<svg width="25" height="25" fill="none" xmlns="http://www.w3.org/2000/svg"><g clip-path="url(#clip0_31_393)"><path d="M14.792 16.939A12.638 12.638 0 018.07 10.2l3.542-3.548L5.09.127 1.788 3.43A6.146 6.146 0 000 7.812C0 15.363 9.638 25 17.188 25a6.135 6.135 0 004.382-1.788l3.303-3.303-6.526-6.526-3.555 3.556zm5.304 4.8a4.064 4.064 0 01-2.908 1.178c-6.493 0-15.104-8.612-15.104-15.105A4.07 4.07 0 013.26 4.904l1.83-1.83 3.58 3.58L5.614 9.71l.255.64a14.972 14.972 0 008.799 8.787l.631.241 3.048-3.049 3.58 3.58-1.83 1.83zM14.584 2.084V0A10.428 10.428 0 0125 10.417h-2.083a8.343 8.343 0 00-8.333-8.334zm0 4.167V4.167a6.256 6.256 0 016.25 6.25H18.75a4.167 4.167 0 00-4.166-4.167z" fill="#C13314"/></g><defs><clipPath id="clip0_31_393"><path fill="#fff" d="M0 0h25v25H0z"/></clipPath></defs></svg>