<svg width="40" height="40" fill="none" xmlns="http://www.w3.org/2000/svg"><g clip-path="url(#clip0_7_121)"><path fill-rule="evenodd" clip-rule="evenodd" d="M8.889 3.37A20 20 0 0120 0a20.022 20.022 0 0120 20A20 20 0 118.889 3.37zm1.852 30.488A16.666 16.666 0 0020 36.667 16.686 16.686 0 0036.667 20 16.666 16.666 0 1010.74 33.858zm12.154-12.191s0 .002-.002.003a3.334 3.334 0 11-4.56-4.542V10h3.334v7.128c.502.29.92.705 1.213 1.205h10.453v3.334H22.895z" fill="#C13314"/></g><defs><clipPath id="clip0_7_121"><path fill="#fff" d="M0 0h40v40H0z"/></clipPath></defs></svg>