<svg width="30" height="30" fill="none" xmlns="http://www.w3.org/2000/svg"><path d="M8.735 29.872c-.626-.246-.801-.771-.811-1.37-.017-.928-.004-1.857-.003-2.786v-.324c-.42-.162-.84-.303-1.242-.481-2.258-1-3.686-2.744-4.494-5.039-.484-1.377-.72-2.807-.791-4.259-.111-2.272-.107-4.543.263-6.797a13.114 13.114 0 011.017-3.372C3.56 3.519 5.05 2.27 6.987 1.497 8.715.81 10.513.433 12.36.268c2.518-.226 5.02-.13 7.504.36 1.148.226 2.265.557 3.35 1.002 2.146.88 3.532 2.462 4.325 4.61.585 1.584.86 3.228.969 4.901.152 2.344.03 4.68-.341 6.996-.31 1.927-1.027 3.68-2.414 5.106-1.162 1.196-2.615 1.844-4.2 2.276-2.812.765-5.671.94-8.564.748-.228-.015-.367.05-.512.225-.635.767-1.265 1.54-1.941 2.27-.381.412-.849.743-1.278 1.11h-.522zm-.011-3.874h-.03c0 .754-.007 1.508.003 2.262.003.222-.065.513.198.618.265.106.418-.145.562-.317 1.173-1.4 2.339-2.807 3.515-4.204.086-.101.248-.207.369-.201 2.086.112 4.155-.018 6.199-.445 1.104-.231 2.215-.461 3.224-1.003 1.813-.974 2.776-2.57 3.257-4.506.335-1.35.39-2.734.442-4.114.08-2.113-.045-4.208-.603-6.265-.64-2.364-2.073-3.922-4.446-4.637-2.29-.69-4.625-.972-7.006-.94-2.1.029-4.162.291-6.136 1.05-.963.369-1.872.841-2.588 1.605-1.246 1.332-1.78 2.982-2.054 4.737-.272 1.745-.285 3.507-.22 5.265.038 1.01.142 2.029.352 3.016.57 2.683 2.071 4.596 4.763 5.44.167.051.202.132.2.288-.006.783-.003 1.566-.003 2.35h.002z" fill="#C13314"/><path d="M7.334 9.214c.017-.73.228-1.202.592-1.573.39-.397.815-.77 1.274-1.082.58-.392 1.102-.278 1.512.287a50.426 50.426 0 011.68 2.426c.453.71.332 1.31-.336 1.827-.932.722-.908 1.01-.474 1.997.814 1.854 2.058 3.277 4.023 3.966.68.239.942.16 1.376-.399.1-.13.199-.261.3-.39.379-.484.93-.63 1.469-.335a12.448 12.448 0 012.738 2.031c.307.3.376.69.21 1.072-.375.874-.948 1.592-1.804 2.044-.444.234-.9.229-1.37.035-3.285-1.361-6.197-3.222-8.304-6.17-1.052-1.47-1.829-3.085-2.506-4.753-.155-.38-.297-.764-.382-.983h.002zm7.795-3.724c3.32.111 6.012 2.32 6.816 5.65.18.746.22 1.526.302 2.293.034.33-.102.487-.346.492-.245.005-.366-.132-.374-.476-.028-1.23-.23-2.425-.777-3.536-1.127-2.285-3.006-3.448-5.513-3.66-.163-.014-.328-.01-.492-.026-.228-.024-.347-.16-.339-.39.01-.233.14-.348.374-.348h.348z" fill="#C13314"/><path d="M20.34 12.484c0 .106.005.213-.001.319-.013.213-.127.348-.344.352-.23.005-.35-.127-.37-.356-.038-.423-.039-.854-.127-1.265-.396-1.84-1.806-3.082-3.715-3.306-.134-.015-.268-.035-.402-.05-.25-.028-.358-.178-.334-.416.024-.25.186-.342.424-.328 2.816.163 4.826 2.248 4.87 5.05z" fill="#C13314"/><path d="M16.019 9.45c1.271.025 2.218.872 2.404 2.157.027.182.053.365.053.548 0 .213-.126.346-.34.36-.199.012-.329-.097-.366-.297-.02-.104-.028-.21-.037-.316-.092-1.024-.662-1.6-1.68-1.697-.029-.003-.058-.002-.087-.005-.239-.021-.376-.148-.376-.391 0-.233.164-.364.429-.359z" fill="#C13314"/></svg>